<svg width="16" height="21" viewBox="0 0 16 21" fill="none" xmlns="http://www.w3.org/2000/svg">
<path d="M11.25 4.86232C11.25 6.57685 9.81479 8.00223 8 8.00223V9.50223C10.6035 9.50223 12.75 7.44446 12.75 4.86232H11.25ZM8 8.00223C6.18521 8.00223 4.75 6.57685 4.75 4.86232H3.25C3.25 7.44446 5.39652 9.50223 8 9.50223V8.00223ZM4.75 4.86232C4.75 3.14779 6.18521 1.72241 8 1.72241V0.222412C5.39652 0.222412 3.25 2.28018 3.25 4.86232H4.75ZM8 1.72241C9.81479 1.72241 11.25 3.14779 11.25 4.86232H12.75C12.75 2.28018 10.6035 0.222412 8 0.222412V1.72241ZM5 12.4197H11V10.9197H5V12.4197ZM11 18.6995H5V20.1995H11V18.6995ZM5 18.6995C3.18521 18.6995 1.75 17.2741 1.75 15.5596H0.25C0.25 18.1417 2.39652 20.1995 5 20.1995V18.6995ZM14.25 15.5596C14.25 17.2741 12.8148 18.6995 11 18.6995V20.1995C13.6035 20.1995 15.75 18.1417 15.75 15.5596H14.25ZM11 12.4197C12.8148 12.4197 14.25 13.845 14.25 15.5596H15.75C15.75 12.9774 13.6035 10.9197 11 10.9197V12.4197ZM5 10.9197C2.39652 10.9197 0.25 12.9774 0.25 15.5596H1.75C1.75 13.845 3.18521 12.4197 5 12.4197V10.9197Z" fill="black"/>
</svg>
