<svg width="23" height="22" viewBox="0 0 23 22" fill="none" xmlns="http://www.w3.org/2000/svg">
<path d="M2.2567 14.4393L2.96805 14.2016L2.2567 14.4393ZM1.1462 8.44098L1.86596 8.65179L1.1462 8.44098ZM5.78341 3.88394L5.35063 3.2714L5.78341 3.88394ZM1.25948 8.10191L1.96142 8.36607L1.25948 8.10191ZM5.28038 20.1364L4.87012 20.7642H4.87012L5.28038 20.1364ZM4.9838 19.9268L4.52902 20.5232L4.9838 19.9268ZM20.7228 14.4393L20.0115 14.2016L20.7228 14.4393ZM17.9957 19.9268L18.4505 20.5232L17.9957 19.9268ZM17.6991 20.1364L18.1094 20.7642L17.6991 20.1364ZM17.1961 3.88394L17.6289 3.2714L17.1961 3.88394ZM21.72 8.10191L21.0181 8.36607L21.72 8.10191ZM21.8333 8.44098L21.1135 8.65179L21.8333 8.44098ZM11.6731 1.00327L11.6998 0.253745L11.6731 1.00327ZM11.3065 1.00327L11.2797 0.253745L11.3065 1.00327ZM9.48975 15.6343C9.07554 15.6343 8.73975 15.97 8.73975 16.3843C8.73975 16.7985 9.07554 17.1343 9.48975 17.1343V15.6343ZM13.4898 17.1343C13.904 17.1343 14.2398 16.7985 14.2398 16.3843C14.2398 15.97 13.904 15.6343 13.4898 15.6343V17.1343ZM2.96805 14.2016C2.45342 12.6614 2.08783 11.5638 1.89612 10.6734C1.70824 9.80089 1.7052 9.20063 1.86596 8.65179L0.426437 8.23016C0.169747 9.10652 0.212649 9.98106 0.429724 10.9892C0.642963 11.9795 1.04134 13.1685 1.54536 14.677L2.96805 14.2016ZM5.35063 3.2714C4.03052 4.20412 2.9914 4.93708 2.22201 5.61488C1.44007 6.30374 0.878909 6.98379 0.557543 7.83776L1.96142 8.36607C2.16376 7.8284 2.53116 7.34158 3.21356 6.74041C3.9085 6.1282 4.86949 5.44798 6.2162 4.49647L5.35063 3.2714ZM1.86596 8.65179C1.89417 8.55548 1.92601 8.46018 1.96142 8.36607L0.557543 7.83776C0.508935 7.96692 0.465202 8.09781 0.426437 8.23016L1.86596 8.65179ZM11.4898 20.2129C9.82571 20.2129 8.63562 20.2119 7.70169 20.1137C6.78417 20.0172 6.18631 19.8324 5.69065 19.5085L4.87012 20.7642C5.63928 21.2668 6.49792 21.4953 7.54478 21.6054C8.57524 21.7138 9.85743 21.7129 11.4898 21.7129V20.2129ZM1.54536 14.677C2.04942 16.1856 2.4457 17.375 2.87159 18.2977C3.30537 19.2376 3.79754 19.9654 4.52902 20.5232L5.43857 19.3304C4.9709 18.9738 4.60885 18.4823 4.23352 17.6691C3.85031 16.8389 3.48262 15.7417 2.96805 14.2016L1.54536 14.677ZM5.69065 19.5085C5.60436 19.4522 5.52028 19.3927 5.43857 19.3304L4.52902 20.5232C4.6397 20.6076 4.75348 20.688 4.87012 20.7642L5.69065 19.5085ZM20.0115 14.2016C19.4969 15.7417 19.1292 16.8389 18.746 17.6691C18.3707 18.4823 18.0086 18.9738 17.5409 19.3304L18.4505 20.5232C19.182 19.9654 19.6741 19.2376 20.1079 18.2977C20.5338 17.375 20.9301 16.1856 21.4341 14.677L20.0115 14.2016ZM11.4898 21.7129C13.1221 21.7129 14.4043 21.7138 15.4347 21.6054C16.4816 21.4953 17.3402 21.2668 18.1094 20.7642L17.2889 19.5085C16.7932 19.8324 16.1953 20.0172 15.2778 20.1137C14.3439 20.2119 13.1538 20.2129 11.4898 20.2129V21.7129ZM17.5409 19.3304C17.4592 19.3927 17.3751 19.4522 17.2889 19.5085L18.1094 20.7642C18.226 20.688 18.3398 20.6076 18.4505 20.5232L17.5409 19.3304ZM16.7633 4.49647C18.11 5.44798 19.071 6.1282 19.7659 6.74041C20.4483 7.34158 20.8157 7.8284 21.0181 8.36607L22.422 7.83776C22.1006 6.98379 21.5394 6.30374 20.7575 5.61488C19.9881 4.93708 18.949 4.20412 17.6289 3.2714L16.7633 4.49647ZM21.4341 14.677C21.9382 13.1685 22.3365 11.9795 22.5498 10.9892C22.7669 9.98106 22.8098 9.10652 22.5531 8.23016L21.1135 8.65179C21.2743 9.20064 21.2713 9.80089 21.0834 10.6734C20.8917 11.5638 20.5261 12.6614 20.0115 14.2016L21.4341 14.677ZM21.0181 8.36607C21.0535 8.46017 21.0853 8.55548 21.1135 8.65179L22.5531 8.23016C22.5143 8.09781 22.4706 7.96692 22.422 7.83776L21.0181 8.36607ZM17.6289 3.2714C16.3086 2.33854 15.2709 1.60418 14.3708 1.10233C13.4552 0.591847 12.6227 0.286669 11.6998 0.253745L11.6463 1.75279C12.2463 1.7742 12.8418 1.96724 13.6403 2.41245C14.4543 2.8663 15.4168 3.5451 16.7633 4.49647L17.6289 3.2714ZM6.2162 4.49647C7.5627 3.5451 8.52516 2.8663 9.33916 2.41245C10.1377 1.96724 10.7332 1.7742 11.3332 1.75279L11.2797 0.253745C10.3568 0.286669 9.52429 0.591847 8.6087 1.10233C7.70859 1.60418 6.67094 2.33854 5.35063 3.2714L6.2162 4.49647ZM11.6998 0.253745C11.5598 0.248752 11.4197 0.248752 11.2797 0.253745L11.3332 1.75279C11.4375 1.74907 11.542 1.74907 11.6463 1.75279L11.6998 0.253745ZM9.48975 17.1343H13.4898V15.6343H9.48975V17.1343Z" fill="black"/>
</svg>
