<svg width="20" height="22" viewBox="0 0 20 22" fill="none" xmlns="http://www.w3.org/2000/svg">
<path d="M17.2178 14.6745L17.1037 13.9333L17.1037 13.9333L17.2178 14.6745ZM13.0616 18.7164L12.3213 18.5959L12.3213 18.5959L13.0616 18.7164ZM3.06107 19.5209L3.49386 18.9084L3.49386 18.9084L3.06107 19.5209ZM1.95491 18.4452L2.55575 17.9963L2.55575 17.9963L1.95491 18.4452ZM18.0451 18.4452L18.6459 18.8941L18.0451 18.4452ZM16.9389 19.5209L16.5061 18.9084L16.9389 19.5209ZM16.9389 1.92863L16.5061 2.54117L16.5061 2.54117L16.9389 1.92863ZM18.0451 3.00435L17.4443 3.45323L17.4443 3.45323L18.0451 3.00435ZM3.06107 1.92863L3.49386 2.54117L3.49386 2.54117L3.06107 1.92863ZM1.95491 3.00435L2.55575 3.45323L2.55575 3.45323L1.95491 3.00435ZM13 20.4214L13.025 21.171L13 20.4214ZM11 9.97477C10.5858 9.97477 10.25 10.3106 10.25 10.7248C10.25 11.139 10.5858 11.4748 11 11.4748L11 9.97477ZM14 11.4748C14.4142 11.4748 14.75 11.139 14.75 10.7248C14.75 10.3106 14.4142 9.97477 14 9.97477L14 11.4748ZM6 6.08486C5.58579 6.08486 5.25 6.42065 5.25 6.83486C5.25 7.24908 5.58579 7.58486 6 7.58486L6 6.08486ZM14 7.58486C14.4142 7.58486 14.75 7.24908 14.75 6.83486C14.75 6.42065 14.4142 6.08486 14 6.08486L14 7.58486ZM17.1037 13.9333C14.6549 14.3104 12.7143 16.1829 12.3213 18.5959L13.8018 18.837C14.0865 17.0887 15.5018 15.6977 17.332 15.4158L17.1037 13.9333ZM18.25 9.75229V11.6972H19.75V9.75229H18.25ZM1.75 11.6972V9.75229H0.25V11.6972H1.75ZM10 19.6995C8.10888 19.6995 6.74914 19.6986 5.69585 19.5876C4.65539 19.478 4.00279 19.268 3.49386 18.9084L2.62829 20.1334C3.43369 20.7025 4.37568 20.9568 5.53867 21.0793C6.68883 21.2005 8.14139 21.1995 10 21.1995V19.6995ZM0.25 11.6972C0.25 13.5033 0.248912 14.9198 0.373976 16.0424C0.500745 17.1803 0.764593 18.1051 1.35408 18.8941L2.55575 17.9963C2.19032 17.5072 1.97671 16.8813 1.86475 15.8763C1.75109 14.8561 1.75 13.5377 1.75 11.6972H0.25ZM3.49386 18.9084C3.13307 18.6535 2.81665 18.3455 2.55575 17.9963L1.35408 18.8941C1.70998 19.3704 2.14013 19.7885 2.62829 20.1334L3.49386 18.9084ZM17.4443 17.9963C17.1834 18.3455 16.8669 18.6535 16.5061 18.9084L17.3717 20.1334C17.8599 19.7885 18.29 19.3704 18.6459 18.8941L17.4443 17.9963ZM10 1.75C11.8911 1.75 13.2509 1.75097 14.3042 1.86195C15.3446 1.97157 15.9972 2.18158 16.5061 2.54117L17.3717 1.3161C16.5663 0.747048 15.6243 0.492742 14.4613 0.370208C13.3112 0.249026 11.8586 0.25 10 0.25V1.75ZM19.75 9.75229C19.75 7.9462 19.7511 6.5297 19.626 5.40714C19.4993 4.26927 19.2354 3.34449 18.6459 2.55546L17.4443 3.45323C17.8097 3.94236 18.0233 4.56829 18.1352 5.57322C18.2489 6.59347 18.25 7.91186 18.25 9.75229H19.75ZM16.5061 2.54117C16.8669 2.79608 17.1834 3.10402 17.4443 3.45323L18.6459 2.55546C18.29 2.07909 17.8599 1.66101 17.3717 1.3161L16.5061 2.54117ZM10 0.25C8.14139 0.25 6.68883 0.249026 5.53867 0.370208C4.37568 0.492742 3.43369 0.747048 2.62829 1.3161L3.49386 2.54117C4.00279 2.18158 4.65539 1.97157 5.69585 1.86195C6.74914 1.75097 8.10888 1.75 10 1.75V0.25ZM1.75 9.75229C1.75 7.91186 1.75109 6.59347 1.86475 5.57322C1.97671 4.56829 2.19032 3.94236 2.55575 3.45323L1.35408 2.55546C0.764593 3.34449 0.500745 4.26927 0.373976 5.40714C0.248912 6.5297 0.25 7.9462 0.25 9.75229H1.75ZM2.62829 1.3161C2.14013 1.66101 1.70998 2.07909 1.35408 2.55546L2.55575 3.45323C2.81665 3.10402 3.13307 2.79608 3.49386 2.54117L2.62829 1.3161ZM18.25 11.6972C18.25 12.8383 18.2499 13.7832 18.2215 14.5883L19.7206 14.6411C19.7501 13.804 19.75 12.8297 19.75 11.6972H18.25ZM18.2215 14.5883C18.1581 16.3902 17.9515 17.3174 17.4443 17.9963L18.6459 18.8941C19.4532 17.8136 19.6564 16.4649 19.7206 14.6411L18.2215 14.5883ZM18.9711 13.8647C18.0881 13.8647 17.5591 13.8631 17.1037 13.9333L17.332 15.4158C17.6458 15.3675 18.0346 15.3647 18.9711 15.3647L18.9711 13.8647ZM10 21.1995C11.1649 21.1995 12.1655 21.1996 13.025 21.171L12.975 19.6718C12.1458 19.6995 11.173 19.6995 10 19.6995V21.1995ZM13.025 21.171C14.8969 21.1086 16.2699 20.9119 17.3717 20.1334L16.5061 18.9084C15.7987 19.4082 14.8315 19.61 12.975 19.6718L13.025 21.171ZM13.75 20.4214C13.75 19.5084 13.7531 19.1363 13.8018 18.837L12.3213 18.5959C12.2482 19.0446 12.25 19.5649 12.25 20.4214L13.75 20.4214ZM11 11.4748L14 11.4748L14 9.97477L11 9.97477L11 11.4748ZM6 7.58486L14 7.58486L14 6.08486L6 6.08486L6 7.58486Z" fill="black"/>
</svg>
