<svg width="22" height="22" viewBox="0 0 22 22" fill="none" xmlns="http://www.w3.org/2000/svg">
<path d="M3.39645 19.733L3.78039 19.0887L3.78039 19.0887L3.39645 19.733ZM1.74574 18.1277L2.38027 17.7279L2.38027 17.7279L1.74574 18.1277ZM20.2721 18.1277L19.6376 17.7279L19.6376 17.7279L20.2721 18.1277ZM18.6214 19.733L18.2375 19.0887L18.2375 19.0887L18.6214 19.733ZM18.6214 4.63395L18.2375 5.27822L18.2375 5.27822L18.6214 4.63395ZM20.2721 6.23923L19.6376 6.63907L19.6376 6.63907L20.2721 6.23923ZM3.39645 4.63395L3.78039 5.27822L3.78039 5.27822L3.39645 4.63395ZM1.74574 6.23923L2.38027 6.63907L2.38027 6.63907L1.74574 6.23923ZM17.4857 1.53141L18.0197 1.00474L18.0197 1.00474L17.4857 1.53141ZM2.85316 1.86627L3.29796 2.47013L3.29796 2.47013L2.85316 1.86627ZM1.86338 2.86975L2.47301 3.30662L1.86338 2.86975ZM18.0089 4.04417L18.7589 4.04417L18.7589 4.04036L18.0089 4.04417ZM17.3726 12.3147C17.7868 12.3147 18.1226 11.9789 18.1226 11.5647C18.1226 11.1504 17.7868 10.8147 17.3726 10.8147V12.3147ZM14.6453 10.8147C14.2311 10.8147 13.8953 11.1504 13.8953 11.5647C13.8953 11.9789 14.2311 12.3147 14.6453 12.3147V10.8147ZM18.0089 4.34319L17.7491 5.04674L18.0089 4.34319ZM20.9533 8.91244L21.7018 8.86434L20.9533 8.91244ZM9.50894 4.66743H12.5089V3.16743H9.50894V4.66743ZM12.5089 19.6995H9.50894V21.1995H12.5089V19.6995ZM9.50894 19.6995C7.8581 19.6995 6.67119 19.6988 5.74509 19.6132C4.82929 19.5285 4.24542 19.3659 3.78039 19.0887L3.0125 20.3773C3.74982 20.8167 4.58548 21.0123 5.60698 21.1068C6.61818 21.2003 7.88635 21.1995 9.50894 21.1995V19.6995ZM0.25894 12.1835C0.25894 13.7602 0.258103 14.9969 0.354599 15.9839C0.452275 16.9829 0.655182 17.8039 1.11121 18.5276L2.38027 17.7279C2.0995 17.2823 1.934 16.7229 1.84748 15.8379C1.75978 14.9409 1.75894 13.7901 1.75894 12.1835H0.25894ZM3.78039 19.0887C3.2079 18.7476 2.72864 18.2807 2.38027 17.7279L1.11121 18.5276C1.5874 19.2833 2.23943 19.9166 3.0125 20.3773L3.78039 19.0887ZM12.5089 21.1995C14.1315 21.1995 15.3997 21.2003 16.4109 21.1068C17.4324 21.0123 18.2681 20.8167 19.0054 20.3773L18.2375 19.0887C17.7725 19.3659 17.1886 19.5285 16.2728 19.6132C15.3467 19.6988 14.1598 19.6995 12.5089 19.6995V21.1995ZM19.6376 17.7279C19.2892 18.2807 18.81 18.7476 18.2375 19.0887L19.0054 20.3773C19.7784 19.9166 20.4305 19.2833 20.9067 18.5276L19.6376 17.7279ZM18.2375 5.27822C18.81 5.61939 19.2892 6.08623 19.6376 6.63907L20.9067 5.83938C20.4305 5.0837 19.7784 4.45038 19.0054 3.98968L18.2375 5.27822ZM9.50894 3.16743C7.88635 3.16743 6.61818 3.16668 5.60698 3.26018C4.58548 3.35463 3.74982 3.55029 3.0125 3.98968L3.78039 5.27822C4.24542 5.0011 4.82929 4.83849 5.74509 4.75381C6.67119 4.66818 7.8581 4.66743 9.50894 4.66743V3.16743ZM1.75894 12.1835C1.75894 10.5769 1.75978 9.42609 1.84748 8.52906C1.934 7.6441 2.0995 7.08464 2.38027 6.63907L1.11121 5.83938C0.655182 6.56307 0.452275 7.38407 0.354599 8.3831C0.258103 9.37004 0.25894 10.6067 0.25894 12.1835H1.75894ZM3.0125 3.98968C2.23943 4.45038 1.5874 5.0837 1.11121 5.83938L2.38027 6.63907C2.72864 6.08623 3.2079 5.61939 3.78039 5.27822L3.0125 3.98968ZM9.06201 1.75H14.4307V0.25H9.06201V1.75ZM14.4307 1.75C15.2958 1.75 15.8682 1.75164 16.2931 1.80955C16.6953 1.86439 16.8518 1.95677 16.9518 2.05808L18.0197 1.00474C17.5955 0.574641 17.0681 0.401319 16.4957 0.323298C15.9459 0.248364 15.2529 0.25 14.4307 0.25V1.75ZM9.06201 0.25C7.40134 0.25 6.09477 0.248942 5.05851 0.362768C4.0076 0.478204 3.14594 0.719104 2.40835 1.26241L3.29796 2.47013C3.73642 2.14717 4.30159 1.95493 5.22229 1.8538C6.15764 1.75106 7.36747 1.75 9.06201 1.75V0.25ZM1.75894 9.16456C1.75894 7.44725 1.75994 6.21869 1.8615 5.26835C1.96162 4.33144 2.15236 3.75406 2.47301 3.30662L1.25376 2.43288C0.71996 3.17776 0.483481 4.04696 0.369991 5.10896C0.257938 6.15752 0.25894 7.48021 0.25894 9.16456H1.75894ZM2.40835 1.26241C1.96491 1.58906 1.57535 1.98412 1.25376 2.43288L2.47301 3.30662C2.70332 2.98524 2.98179 2.70303 3.29796 2.47013L2.40835 1.26241ZM18.7589 4.04036C18.7556 3.38264 18.7412 2.80906 18.6558 2.33248C18.5667 1.83521 18.3901 1.38028 18.0197 1.00474L16.9518 2.05808C17.042 2.14963 17.1237 2.28689 17.1793 2.59714C17.2386 2.92807 17.2555 3.37733 17.2589 4.04798L18.7589 4.04036ZM0.25894 9.16456C0.25894 10.1119 0.238776 10.9821 0.259212 11.7181L1.75863 11.6764C1.7389 10.9657 1.75894 10.1661 1.75894 9.16456H0.25894ZM20.5089 13.4669H14.6453V14.9669H20.5089V13.4669ZM11.168 11.5647C11.168 13.4632 12.7447 14.9669 14.6453 14.9669V13.4669C13.5334 13.4669 12.668 12.5956 12.668 11.5647H11.168ZM12.668 11.5647C12.668 10.5337 13.5334 9.66244 14.6453 9.66244V8.16244C12.7447 8.16244 11.168 9.66607 11.168 11.5647H12.668ZM17.3726 10.8147H14.6453V12.3147H17.3726V10.8147ZM12.5089 4.66743C13.8933 4.66743 14.9543 4.66774 15.8137 4.7193C16.6725 4.77084 17.2743 4.87138 17.7491 5.04674L18.2688 3.63964C17.5908 3.38925 16.8186 3.27691 15.9036 3.222C14.9891 3.16713 13.8766 3.16743 12.5089 3.16743V4.66743ZM17.7491 5.04674C17.9269 5.11241 18.0876 5.18892 18.2375 5.27822L19.0054 3.98968C18.7722 3.85071 18.5278 3.73532 18.2688 3.63964L17.7491 5.04674ZM17.2589 4.04417V4.34319H18.7589V4.04417H17.2589ZM14.6453 9.66244H20.9533V8.16244H14.6453V9.66244ZM21.7589 12.1835C21.7589 10.8473 21.7593 9.75877 21.7018 8.86434L20.2049 8.96054C20.2586 9.79603 20.2589 10.8293 20.2589 12.1835H21.7589ZM21.7018 8.86434C21.6232 7.64107 21.4326 6.67394 20.9067 5.83938L19.6376 6.63907C19.9626 7.15487 20.1316 7.81979 20.2049 8.96054L21.7018 8.86434ZM20.2589 12.1835C20.2589 12.9494 20.2589 13.6149 20.2489 14.2041L21.7486 14.2297C21.759 13.6251 21.7589 12.9458 21.7589 12.1835H20.2589ZM20.2489 14.2041C20.2163 16.1085 20.0722 17.0382 19.6376 17.7279L20.9067 18.5276C21.5919 17.4401 21.7166 16.1047 21.7486 14.2297L20.2489 14.2041ZM20.5089 14.9669H20.9988V13.4669H20.5089V14.9669Z" fill="black"/>
</svg>
